<svg id="Calque_1" version="1.1" xmlns="http://www.w3.org/2000/svg" xmlns:xlink="http://www.w3.org/1999/xlink" x="0px" y="0px" viewBox="0 0 70.9 70.9" xml:space="preserve" class="gatorade"><g><g><g><g><path d="M16.3,57.1l0.6-2.2h0l0.7,2.2H16.3z M18.5,53.5h-3.8v1.2h0.6L13.7,60h-0.5v1.4h3V60h-0.5l0.4-1.5H18
      l0.4,1.5h-0.5v1.4h3.2V60h-0.5L18.5,53.5z M26,60h-0.8V55h1.1v1.2h1.3v-2.8h-6.9v2.8h1.3V55H23V60h-0.8v1.4H26V60z M31.7,61.5
      c2.7,0,3.9-2.1,3.9-4.1c0-2.1-1.2-4.1-3.9-4.1c-2.7,0-3.9,2-3.9,4.1C27.8,59.5,29,61.5,31.7,61.5 M31.7,55.1
      c0.9,0,1.7,0.8,1.7,2.3c0,1.5-0.8,2.3-1.7,2.3c-0.9,0-1.7-0.8-1.7-2.3C30,55.9,30.8,55.1,31.7,55.1 M35.9,61.4h3.2V60h-0.6v-1.5
      H39c0.9,0,1,0.4,1,1.2v1.7h2.6V60H42v-0.7c0-0.9-0.2-1.4-1.3-1.7v0c0.7-0.1,1.5-0.7,1.5-1.9c0-1.4-1.1-2.2-3.2-2.2h-3.1v1.4h0.6
      V60h-0.6V61.4z M40.1,55.9c0,0.7-0.4,1.1-1.1,1.1h-0.5v-2.2H39C39.8,54.9,40.1,55.2,40.1,55.9 M46.3,57.1l0.6-2.2h0l0.7,2.2
      H46.3z M48.5,53.5h-3.8v1.2h0.6L43.6,60h-0.5v1.4h3V60h-0.5l0.4-1.5H48l0.4,1.5h-0.5v1.4h3.2V60h-0.5L48.5,53.5z M54.5,54.9
      c1.2,0,2,0.6,2,2.4c0,2-0.8,2.7-2,2.7h-0.2v-5H54.5z M51.5,53.5v1.4h0.6V60h-0.6v1.4h3.1c2.3,0,4-1.4,4-4.1
      c0-2.6-1.6-3.8-3.9-3.8H51.5z M59,61.4h5.9v-2.5h-1.3V60h-1.9v-1.7h1.4v-1.4h-1.4v-1.9h1.9V56h1.3v-2.6H59v1.4h0.6V60H59V61.4z
       M9.2,57l0,1.5h1.3v1.1c-0.3,0.1-0.5,0.2-0.8,0.2c-1.3,0-2.2-1-2.2-2.3c0-1.2,0.8-2.2,2-2.2c1.1,0,1.5,0.5,1.6,0.7l0,0h1.3v-2.6
      h-1.2v0.4c-0.5-0.2-1-0.3-1.7-0.3c-2.5,0-4.3,1.7-4.3,4.1c0,2.3,1.7,4,4.2,4c1.2,0,2.2-0.3,3.1-0.9V57H9.2z"></path></g></g></g> <g><g><path d="M47.1,21.6l-4,1.4l3.2-3.8l-11.8,3.9l-4.6,7.1l2.8-1.1c0,0-4.3,10.8-4.9,12.4L47.1,21.6z M31.7,28.6l3.3-5
    l8.8-2.9l-3.2,3.8l3.5-1.2L29.9,37.9l4-10.1L31.7,28.6z"></path></g> <g><path d="M41.6,28.4l-7.2,7.4h6.7v5.7c-1.5,0.6-2.5,0.9-4.1,0.9c-2.6,0-4.9-0.8-6.7-2.2l-4.3,4.3l2.4-6.1
    c-1.4-2-2.4-4.8-2.4-7.6c0-6.3,4.3-10.9,10.1-10.9c1.5,0,2.8,0.2,4.1,0.7l8.3-2.7l-2.9,3.7l4.4-1.6l-2.9,3l-0.4,0.4h3.9V9.9h-6.2
    v2c-2.5-1-5.2-1.4-8.3-1.4c-12.4,0-21.4,8.7-21.4,20.8c0,11.8,8.6,20,21,20c5.8,0,11.1-1.6,15.6-4.7V28.4H41.6z"></path></g></g></g></svg>