<svg id="Calque_1" version="1.1" xmlns="http://www.w3.org/2000/svg" xmlns:xlink="http://www.w3.org/1999/xlink" viewBox="0 0 56.69 56.69" xml:space="preserve" class="fff"><g><g><rect x="14.89" y="46.67" width="2.95" height="0.17"></rect> <rect x="38.59" y="46.67" width="2.95" height="0.17"></rect> <rect x="14.89" y="46.69" width="2.95" height="0.17"></rect> <rect x="38.59" y="46.69" width="2.95" height="0.17"></rect> <path d="M20.94,47.6h-0.46L20.16,47c-0.09,0-0.2,0-0.28,0v0.6h-0.4v-1.74c0.2-0.02,0.38-0.03,0.54-0.03
        c0.51,0,0.82,0.12,0.82,0.57c0,0.25-0.11,0.43-0.32,0.5L20.94,47.6z M19.88,46.67c0.07,0.01,0.14,0.01,0.19,0.01
        c0.24,0,0.36-0.05,0.36-0.26c0-0.19-0.12-0.24-0.34-0.24c-0.06,0-0.14,0-0.21,0.01V46.67z"></path> <path d="M22.36,47.6h-1.25v-1.75h1.21v0.33h-0.81v0.37h0.72v0.32h-0.72v0.39h0.85V47.6z M21.77,45.7h-0.28l0.2-0.4h0.41
        L21.77,45.7z"></path> <path d="M22.57,47.53v-0.35c0.19,0.07,0.38,0.11,0.54,0.11c0.21,0,0.3-0.06,0.3-0.17c0-0.12-0.1-0.17-0.26-0.21
        c-0.31-0.08-0.59-0.19-0.59-0.56c0-0.31,0.23-0.53,0.66-0.53c0.16,0,0.33,0.03,0.49,0.08v0.34c-0.15-0.05-0.32-0.07-0.46-0.07
        c-0.21,0-0.29,0.07-0.29,0.17c0,0.14,0.15,0.18,0.37,0.25c0.28,0.08,0.48,0.2,0.48,0.5c0,0.35-0.24,0.54-0.68,0.54
        C22.95,47.62,22.72,47.59,22.57,47.53"></path> <polygon points="25.31,47.6 24.06,47.6 24.06,45.85 25.28,45.85 25.28,46.18 24.46,46.18 24.46,46.55 25.18,46.55 25.18,46.87
        24.46,46.87 24.46,47.27 25.31,47.27     "></polygon> <path d="M27.13,47.6h-0.41l-0.12-0.38h-0.67l-0.12,0.38h-0.4L26,45.85h0.53L27.13,47.6z M26.5,46.9l-0.24-0.76l-0.24,0.76H26.5z"></path> <path d="M27.96,47.62c-0.53,0-0.75-0.22-0.75-0.7v-1.07h0.4v1.08c0,0.23,0.11,0.36,0.36,0.36c0.23,0,0.34-0.11,0.34-0.36v-1.08
        h0.4v1.07C28.71,47.4,28.49,47.62,27.96,47.62"></path> <path d="M31.25,47.6h-0.41l-0.12-0.38h-0.67l-0.12,0.38h-0.4l0.59-1.75h0.53L31.25,47.6z M30.62,46.9l-0.24-0.76l-0.24,0.76H30.62
        z"></path> <path d="M32.21,47.63c-0.6,0-0.86-0.29-0.86-0.9c0-0.61,0.27-0.91,0.88-0.91c0.16,0,0.35,0.03,0.48,0.07v0.34
        c-0.18-0.04-0.33-0.06-0.46-0.06c-0.38,0-0.5,0.14-0.5,0.56c0,0.43,0.11,0.56,0.45,0.56c0.06,0,0.12,0,0.18-0.02v-0.58h0.36v0.85
        C32.59,47.59,32.38,47.63,32.21,47.63"></path> <path d="M34.51,47.6h-0.46L33.74,47c-0.09,0-0.2,0-0.28,0v0.6h-0.4v-1.74c0.2-0.02,0.37-0.03,0.54-0.03
        c0.51,0,0.82,0.12,0.82,0.57c0,0.25-0.11,0.43-0.32,0.5L34.51,47.6z M33.46,46.67c0.07,0.01,0.14,0.01,0.19,0.01
        c0.24,0,0.36-0.05,0.36-0.26c0-0.19-0.12-0.24-0.34-0.24c-0.06,0-0.14,0-0.21,0.01V46.67z"></path> <path d="M35.94,47.6h-1.25v-1.75h1.21v0.33h-0.81v0.37h0.72v0.32h-0.72v0.39h0.85V47.6z M35.35,45.7h-0.28l0.2-0.4h0.41
        L35.35,45.7z"></path> <path d="M37.43,47.6h-1.25v-1.75h1.21v0.33h-0.81v0.37h0.72v0.32h-0.72v0.39h0.85V47.6z M36.84,45.7h-0.28l0.2-0.4h0.41
        L36.84,45.7z"></path> <polygon points="26.82,49.57 27.52,49.57 27.52,49.89 26.82,49.89 26.82,50.56 26.42,50.56 26.42,48.81 27.63,48.81 27.63,49.14
        26.82,49.14     "></polygon> <polygon points="28.27,49.57 28.97,49.57 28.97,49.89 28.27,49.89 28.27,50.56 27.87,50.56 27.87,48.81 29.08,48.81 29.08,49.14
        28.27,49.14     "></polygon> <polygon points="29.71,49.57 30.42,49.57 30.42,49.89 29.71,49.89 29.71,50.56 29.31,50.56 29.31,48.81 30.52,48.81 30.52,49.14
        29.71,49.14     "></polygon></g> <g><polygon points="23.06,8.92 21.53,7.83 23.42,7.83 24.01,6.07 24.6,7.83 26.49,7.83 24.95,8.92 25.59,10.6 24.01,9.9 22.43,10.6
            "></polygon> <polygon points="31.47,8.92 29.93,7.83 31.82,7.83 32.41,6.07 33.01,7.83 34.9,7.83 33.36,8.92 33.99,10.6 32.41,9.9 30.83,10.6
            "></polygon></g> <g><polygon points="26.64,35.8 27.5,35.8 27.5,34.6 29.84,34.6 29.84,33.92 27.5,33.92 27.5,33.08 30.19,33.08 30.19,32.39
        26.64,32.39     "></polygon> <polygon points="35.48,33.08 35.48,32.39 31.93,32.39 31.93,35.8 32.79,35.8 32.79,34.6 35.13,34.6 35.13,33.92 32.79,33.92
        32.79,33.08     "></polygon> <polygon points="24.9,33.08 24.9,32.39 21.35,32.39 21.35,35.8 22.21,35.8 22.21,34.6 24.54,34.6 24.54,33.92 22.21,33.92
        22.21,33.08     "></polygon> <path d="M34.06,19.3c-0.27-0.05-0.77-0.08-0.85-0.42c-0.23,0.68,0.19,1.38,0.8,1.38c0.34,0,0.52-0.23,0.52-0.49
        C34.52,19.53,34.35,19.35,34.06,19.3 M32.74,16.86c-0.5-0.43-1.28-0.24-1.51-0.74c-0.23,0.25-0.33,0.56-0.17,0.82
        c-0.19,0.09-0.43,0.13-0.62,0.04c-0.2,0.27-0.19,0.6-0.07,0.8c-0.16,0.12-0.4,0.2-0.61,0.15c0.07,0.24,0.29,0.41,0.52,0.41
        c-0.04,0.17-0.11,0.25-0.25,0.31c0.19,0.36,0.8,0.45,1.21,0.31c-0.04-0.04-0.12-0.17-0.12-0.39c0-0.57,0.48-0.95,1.15-0.95
        c0.27,0,0.45,0.04,0.55,0.05c0.04,0.01,0.07,0.01,0.1-0.05C32.98,17.44,33.05,17.12,32.74,16.86"></path> <path d="M27.66,20.79c0.93,0.13,1.72,0.47,2.41,0.89c-0.25-1.88-1.69-3.39-3.97-3.39c-0.98,0-1.99,0.24-2.84,0.83
        C25.34,18.49,27.01,19.27,27.66,20.79 M32.5,18.46c0.12,0,0.21-0.09,0.21-0.21c0-0.11-0.09-0.2-0.21-0.2c-0.11,0-0.2,0.09-0.2,0.2
        C32.31,18.37,32.4,18.46,32.5,18.46 M34.03,18.74c-0.84-0.19-1-0.57-0.56-1.35c-0.24,0.27-0.64,0.7-0.48,1.08
        C33.17,18.83,33.91,18.75,34.03,18.74 M33.77,23.92c0.66-0.1,1.16-0.66,1.16-1.31c0-0.42-0.19-1.16-0.7-1.57
        C34.56,22.02,34.38,23.21,33.77,23.92 M26.75,20.03c-1.47-1.28-4.13-0.57-5.18,0.77c-1.43,1.82-0.73,4.17,0.07,5.01
        C21.08,22.52,23.13,19.81,26.75,20.03 M33.58,24.19c-0.08,0-0.16-0.01-0.24-0.03c-0.28,0.56-0.68,1.04-1.13,1.47
        c0.17,0.04,0.34,0.06,0.52,0.06c1.32,0,2.14-1.11,2.21-2.25C34.58,23.92,34.12,24.19,33.58,24.19 M23.99,25.17
        c-0.82,1.55-0.12,2.94,1.34,2.74C24.4,27.59,23.76,26.27,23.99,25.17 M29.64,24.49c-0.57-0.41-1.16-0.8-1.79-1.02
        c-0.24,1.48-0.81,2.81-0.81,4.4c0,1.09,0.27,2,1.09,3.13c-0.21-0.59-0.3-1.02-0.3-1.55C27.83,27.54,28.98,26.21,29.64,24.49
         M31.8,20.04c0.27,0.6,0.49,1.5,0.49,2.15c0,2.67-2.21,3.57-3.46,5.57c1.45-1.11,3.58-2.08,4.37-3.91
        C33.71,22.64,33.31,20.88,31.8,20.04 M31.87,23.31C30.66,22.37,29.13,21,26.85,21c-2.78,0-4.36,1.99-4.36,4.3
        c0,1.34,0.65,2.39,0.96,2.7c-0.77-2.39,0.84-5,3.33-5c1.59,0,2.85,1.22,4.09,2.02C31.31,24.5,31.67,23.97,31.87,23.31"></path></g> <path d="M28.21,11.77L14.21,18v17.66l14.01,6.24l14.01-6.24V18L28.21,11.77z M41.26,35.06l-13.04,5.81l-13.04-5.81V18.61
      l13.04-5.81l13.04,5.81V35.06z"></path></g></svg>