<svg id="Calque_1" version="1.1" xmlns="http://www.w3.org/2000/svg" xmlns:xlink="http://www.w3.org/1999/xlink" x="0px" y="0px" viewBox="0 0 70.9 70.9" xml:space="preserve" class="rmc"><g><path d="M19.6,32.7c0-3.7-2.7-3.7-3-3.7c-0.3,0-6.5,0-6.5,0L8.5,42.5l4.1,0l0.3-4.3c0,0,0.1-0.4,0.5-0.4c0.4,0,0.5,0.3,0.5,0.3
l1,4.3l4,0l-1.5-5.3C17.3,37.3,19.6,36.4,19.6,32.7z M14.3,35.3h-1.2l0.3-3.6c0,0,0.7,0,0.9,0c0.3,0,1.3,0.4,1.2,1.9
C15.6,35.2,14.3,35.3,14.3,35.3z"></path> <polygon points="27.5,35.5 25.5,29 22.1,29 20.6,42.5 24.2,42.5 24.7,37.7 26.2,42.5 27.5,42.5 29.9,37.4 29.5,42.5 33.1,42.5
34.4,29 30.9,29 	"></polygon> <path d="M42.3,32.5c0,0,0.9-0.2,2,1.4l0.6,0l1.6-2.7c0,0,0.1-0.4-0.2-0.8c-0.4-0.4-1.5-1.8-4.2-1.8c-2.7,0-5.8,2.3-6.4,6.4
c-0.5,3.5,0.6,6.9,3.9,7.7c3.3,0.8,5.6-1.3,6-2.2c0.1-0.3,0.1-0.4,0-0.6c-0.1-0.2-1.1-2.1-1.1-2.1l-0.6,0c0,0-0.2,0-0.4,0.2
c-0.2,0.2-0.8,0.8-1.1,0.9c-0.5,0.4-3.1,0.3-2.9-2.9C39.8,32.5,42.3,32.5,42.3,32.5z"></path> <path d="M63.1,38.7c0-0.2-0.1-0.2-0.2-0.2l-0.6,0v0.4l0.6,0C63,38.9,63.1,38.8,63.1,38.7z"></path> <path d="M59.7,39.6c0.3,0,0.6-0.2,0.6-0.6c0-0.4-0.2-0.6-0.6-0.6c-0.3,0-0.6,0.2-0.6,0.6C59.1,39.4,59.3,39.6,59.7,39.6z"></path> <path d="M57.1,38.6c0-0.2-0.1-0.2-0.3-0.2h-0.5l0,0.5l0.5,0C57,38.9,57.1,38.8,57.1,38.6z"></path> <polygon points="58.1,35.4 57.9,36.1 58.4,36.1 58.1,35.4 	"></polygon> <path d="M63.2,33.1c0.4,0,0.6-0.2,0.6-0.6c0-0.4-0.2-0.6-0.6-0.6c-0.4,0-0.6,0.2-0.6,0.6C62.6,32.9,62.8,33.1,63.2,33.1z"></path> <path d="M3,27.1v17.2h64.1V27.1H3z M64.2,38.5l0-0.6l2.4,0l0,0.6l-0.8,0l0,1.6l-0.8,0l0-1.6L64.2,38.5z M54.4,35.2v-0.6l2.5,0
l0,0.6l-0.8,0l0,1.6h-0.9l0-1.6H54.4z M54.9,33.6l0-2.2l0.9,0l0,2.2L54.9,33.6z M56.2,33.6l0-2.2l1,0l0.9,1.2h0v-1.2l0.8,0l0,2.2
h-1L57,32.3l0,0l0,1.2L56.2,33.6z M55.4,37.9l1.7,0c0.6,0,0.8,0.3,0.8,0.8c0,0.4-0.2,0.7-0.8,0.7l-0.9,0l0,0.7h-0.8L55.4,37.9z
 M57.7,36.6l-0.1,0.2h-0.9l0.9-2.2l1.1,0l0.9,2.2l-0.9,0l-0.1-0.3H57.7z M61.4,32.2v0.5l-1.3,0v0.8l-0.9,0l0-2.2l2.2,0v0.5l-1.4,0
l0,0.3L61.4,32.2z M59.7,37.8c0.5,0,1.5,0,1.5,1.2c0,1.1-1,1.2-1.5,1.2c-0.5,0-1.5,0-1.5-1.2C58.2,37.9,59.2,37.8,59.7,37.8z
 M59.8,36.9l0-2.2l0.9,0l0,1.6l1.3,0l0,0.6L59.8,36.9z M61.7,32.5c0-1.1,1-1.2,1.5-1.2c0.5,0,1.5,0,1.5,1.2c0,1.1-1,1.2-1.5,1.2
C62.6,33.6,61.7,33.6,61.7,32.5z M61.4,37.9l1.8,0c0.2,0,0.4,0,0.5,0.1c0.2,0.1,0.3,0.3,0.3,0.5c0,0.2-0.1,0.4-0.3,0.5l0,0
c0.1,0,0.2,0.1,0.2,0.3l0,0.5c0,0.1,0.1,0.2,0.1,0.3l-0.9,0c0-0.1,0-0.2,0-0.4c0-0.2-0.1-0.3-0.2-0.3l-0.6,0l0,0.7l-0.8,0
L61.4,37.9z M64,36.9l-0.6-0.8l-0.3,0.3l0,0.6h-0.9l0-2.2l0.9,0l0,0.8l0.8-0.8l1.2,0l-1,0.8l1.1,1.4L64,36.9z M54,39.3l-1-0.1
c-0.4-0.1-0.6-0.3-0.6-0.6c0-0.6,0.5-0.7,1.2-0.7c1,0,1.3,0.3,1.4,0.7l-1,0c0-0.1-0.1-0.1-0.1-0.2c-0.1,0-0.2,0-0.3,0
c-0.3,0-0.3,0.1-0.3,0.2c0,0.1,0,0.1,0.1,0.1l1,0.2c0.4,0.1,0.7,0.3,0.7,0.6c0,0.5-0.4,0.8-1.4,0.8c-0.7,0-1.4-0.1-1.4-0.7l1,0
c0,0.1,0,0.1,0.1,0.2c0.1,0,0.2,0,0.3,0c0.3,0,0.3-0.1,0.3-0.2C54.2,39.4,54.1,39.3,54,39.3z M3.1,27.3h49.1v16.9H3.1V27.3z"></path></g></svg>