<svg id="Calque_1" version="1.1" xmlns="http://www.w3.org/2000/svg" xmlns:xlink="http://www.w3.org/1999/xlink" x="0px" y="0px" viewBox="0 0 2822 966" xml:space="preserve" class="betclick">
            <style type="text/css"></style> 
            <g><path d="M2807,15.4v935.1H15V15.4H2807 M2822,0.4H0v965.1h2822V0.4L2822,0.4z" class="st0"></path></g> <g><g><path d="M324,231.6h220.9c87.7,0,147,49.6,147,118c0,61.4-41.1,114.9-102.8,142.4c44.3,21.2,73.5,64.5,73.5,114.1
			c0,102.3-99.6,166-211.1,166H211L324,231.6z M443,658.1c49.8,0,87.8-30.7,87.8-72.4c0-23.6-19-36.2-56.9-36.2H392l-22.9,108.6H443
			z M467.5,445.6c46.6,0,82.2-29.1,82.2-67.7c-0.8-21.2-18.2-32.3-53-32.3h-62l-20.6,99.9H467.5z" class="st0"></path> <path d="M1420.9,599.8c0-133.8,132-243.9,265.6-243.9c71.9,0,124.1,33,155.7,76.3l-98,65.3
			c-12.7-19.7-41.9-30.7-65.6-30.7c-68,0-131.2,66.1-131.2,129.8c0,41.7,31.6,74,73.5,74c32.4,0,68.8-18.1,91.7-40.1l78.3,80.3
			c-50.6,46.4-110.7,70.8-179.5,70.8C1502.4,781.6,1420.9,700.6,1420.9,599.8z" class="st0"></path> <path d="M2189.6,599.8c0-133.8,132-243.9,265.6-243.9c71.9,0,124.1,33,155.7,76.3l-98,65.3
			c-12.7-19.7-41.9-30.7-65.6-30.7c-68,0-131.2,66.1-131.2,129.8c0,41.7,31.6,74,73.5,74c32.4,0,68.8-18.1,91.7-40.1l78.3,80.3
			c-50.6,46.4-110.7,70.8-179.5,70.8C2271.1,781.6,2189.6,700.6,2189.6,599.8z" class="st0"></path> <g><path d="M885.2,670.7c-19.4,0-36.6-6.5-49.7-17.3l176.4-78.5l129.2-57.5c-3-27.6-12.3-53.3-26.7-75.7
				c-32.9-51.4-92.4-85.6-164.4-85.6c-132.8,0-264.8,109.4-264.8,243.9c0,10.8,1,21.3,2.8,31.6c4.8,27.1,15.6,52.1,31.3,73.6
				c33.9,46.4,90.5,76.6,158,76.6c64.7,0,129.2-26.4,178.3-68.8l-80.2-82.2C950.8,654.5,918.2,670.7,885.2,670.7z M942.9,466.9
				c23.9,0,44.2,9.8,57.6,25.4l-189.1,84.2C823,519.2,881.4,466.9,942.9,466.9z" class="st0"></path> <path d="M1396.2,208l-141.4,63l-20,94.4H1181L1158,471.6h54.5c-35.6,165.2-39.5,182.5-39.5,203
				c0,62.2,44.3,107,111.5,107c36.4,0,75.9-13.4,103.6-35.4l-14.2-92.8c-8.7,7.9-27.7,17.3-45.9,17.3c-14.2,0-22.1-7.1-22.1-24.4
				c0-9.4,2.4-18.9,34.8-174.7h84.6l22.1-106.2h-84.6L1396.2,208z" class="st0"></path></g></g> <path d="M1918.6,231.6h127L1933,772.2h-127L1918.6,231.6z" class="st0"></path> <path d="M2071.2,365.4h127.6l-85.4,406.8h-127.6L2071.2,365.4z M2089.8,260.7c0-42.5,38-76.3,77.5-76.3
		c36.4,0,63.2,29.1,63.2,64.5c0,40.1-36.4,75.5-75.1,75.5C2116.7,324.5,2089.8,296.1,2089.8,260.7z" class="st0"></path></g>
        </svg>