<svg version="1.0" xmlns="http://www.w3.org/2000/svg"
width="100" height="100" style="width:3rem; height:3rem" viewBox="0 0 800.000000 800.000000"
 preserveAspectRatio="xMidYMid meet">

<g transform="translate(0.000000,800.000000) scale(0.100000,-0.100000)"
fill="#fff" stroke="none">
<path d="M2 4043 l3 -1778 134 -3 c74 -1 159 2 188 8 62 13 151 70 392 249
184 137 205 149 311 182 90 29 -131 27 2510 16 2048 -8 3241 -22 3335 -38 92
-16 155 -52 262 -148 164 -147 366 -313 400 -327 40 -17 413 -20 444 -4 19 11
19 41 19 1769 0 1562 -2 1760 -15 1771 -12 10 -809 20 -3823 46 -2094 18
-3887 33 -3985 34 l-177 0 2 -1777z m790 1317 c118 -143 124 -130 -51 -130
l-149 0 -91 109 c-50 60 -91 112 -91 115 0 4 68 5 152 4 l152 -3 78 -95z m509
-17 l60 -113 -194 0 -195 0 -91 115 -91 115 225 -2 226 -3 60 -112z m284 107
l121 0 36 -102 c20 -56 36 -103 35 -104 -1 -1 -79 -4 -174 -8 l-172 -7 -58
108 c-32 59 -60 112 -62 117 -2 5 27 7 74 3 43 -4 133 -7 200 -7z m514 -93
c17 -50 31 -98 31 -105 0 -9 -35 -12 -142 -12 l-143 0 -37 105 -37 105 149 0
148 0 31 -93z m391 89 c0 -2 7 -40 15 -83 26 -135 39 -123 -139 -123 -85 0
-157 4 -160 8 -3 5 -21 52 -40 105 l-35 97 179 0 c99 0 180 -2 180 -4z m417
-93 c12 -54 19 -101 17 -105 -3 -5 -79 -8 -169 -8 -189 0 -164 -17 -188 128
l-14 82 167 0 167 0 20 -97z m433 71 c6 -14 10 -58 10 -99 l0 -73 -172 -4
c-95 -2 -176 -2 -180 2 -4 3 -14 39 -23 80 -8 41 -17 85 -20 98 l-5 22 190 0
190 0 10 -26z m470 -79 l0 -95 -197 2 -198 3 -3 93 -3 92 201 0 200 0 0 -95z
m453 24 c-1 -36 -7 -78 -12 -92 l-11 -27 -182 2 -183 3 -3 79 c-2 44 -1 85 2
93 5 11 43 13 198 11 l193 -3 -2 -66z m504 56 c3 -9 -7 -49 -21 -89 l-27 -74
-172 -7 c-237 -10 -222 -14 -220 66 1 36 7 77 12 92 l11 27 205 0 c176 0 206
-2 212 -15z m463 6 c0 -5 -15 -44 -33 -88 l-34 -78 -178 -3 c-98 -1 -182 1
-187 6 -10 10 39 153 56 164 16 11 376 10 376 -1z m458 -6 c2 -2 -15 -39 -37
-84 l-41 -81 -190 0 c-105 0 -190 1 -190 3 0 6 64 151 72 162 5 9 377 9 386 0z
m502 -8 c0 -7 -20 -42 -45 -78 -55 -78 -55 -78 -287 -78 -144 -1 -168 1 -168
14 0 9 16 47 35 85 l35 70 215 0 c170 0 215 -3 215 -13z m445 3 c4 -6 -17 -42
-45 -80 l-52 -70 -180 0 c-206 0 -196 -8 -122 96 l46 64 173 0 c108 0 176 -4
180 -10z m473 -3 c9 -10 -3 -29 -49 -80 l-61 -67 -178 0 c-112 0 -181 4 -185
10 -4 6 17 42 45 80 l52 70 183 0 c138 0 185 -3 193 -13z m430 -3 c8 -6 -17
-35 -76 -88 l-63 -57 -147 3 c-104 2 -147 6 -147 15 0 6 26 41 57 76 l58 65
157 -5 c87 -3 160 -7 161 -9z m-7110 -186 l112 -117 0 -125 0 -125 -120 82
-120 82 0 140 c0 116 6 196 14 183 1 -2 52 -56 114 -120z m7187 -102 l0 -139
-104 -65 -104 -64 6 132 6 133 38 40 c52 54 125 107 143 104 12 -2 15 -26 15
-141z m-295 84 c12 -8 -1 -26 -70 -95 l-85 -85 -137 0 c-94 0 -138 4 -138 11
0 6 30 46 68 89 l67 78 130 4 c72 2 135 5 140 6 6 1 17 -3 25 -8z m-1277 -6
c3 -3 -22 -46 -56 -95 l-61 -89 -178 0 c-115 0 -178 4 -178 10 0 6 18 46 40
90 l40 79 72 4 c139 6 315 7 321 1z m440 -7 c-4 -8 -35 -51 -67 -95 l-59 -82
-174 0 c-95 0 -173 3 -173 8 0 8 11 25 77 120 l44 62 180 0 c148 0 179 -2 172
-13z m447 2 c0 -12 -126 -159 -146 -172 -20 -12 -327 -4 -331 9 -2 5 24 47 57
92 l60 82 180 0 c122 0 180 -3 180 -11z m-2253 -16 c8 -22 -36 -150 -54 -157
-24 -9 -317 -6 -331 3 -11 7 -12 22 -3 82 7 40 17 77 24 81 7 4 90 8 185 8
152 0 173 -2 179 -17z m450 5 c-2 -7 -19 -48 -37 -90 l-33 -78 -169 0 c-142 0
-170 2 -175 15 -6 16 31 130 49 153 8 9 58 12 190 12 140 0 179 -3 175 -12z
m408 -78 l-45 -90 -180 0 c-99 0 -180 4 -180 9 0 5 12 35 26 67 14 33 30 69
35 82 8 22 11 22 199 22 l190 0 -45 -90z m-2590 58 c17 -74 25 -114 25 -125 0
-10 -41 -13 -174 -13 l-173 0 -7 43 c-4 23 -9 56 -12 74 l-6 32 103 4 c263 8
238 9 244 -15z m409 -5 c8 -42 11 -118 4 -128 -4 -6 -68 -8 -164 -5 l-158 5
-13 60 c-21 104 -36 95 156 95 l169 0 6 -27z m454 -55 l-3 -83 -175 -2 c-96
-2 -181 1 -189 6 -9 6 -16 35 -19 85 l-5 76 197 0 197 0 -3 -82z m425 75 c7
-12 -14 -136 -26 -150 -13 -18 -308 -18 -325 -1 -13 13 -17 140 -5 151 9 10
351 9 356 0z m-2802 -80 l41 -73 -174 0 -173 1 -53 69 -53 69 148 4 c248 5
218 13 264 -70z m389 22 c9 -27 20 -60 24 -73 l8 -23 -157 3 -157 3 -40 73
-40 72 172 -2 173 -3 17 -50z m366 -14 c13 -35 24 -67 24 -72 0 -5 -67 -9
-148 -9 l-148 0 -22 68 c-12 38 -22 72 -22 75 0 4 66 6 146 5 l146 -3 24 -64z
m358 27 c4 -24 9 -58 12 -76 l6 -33 -142 3 -143 3 -23 67 c-12 36 -20 69 -16
72 3 3 72 6 152 6 l147 0 7 -42z m-1546 -38 l53 -70 -149 0 -148 0 -21 28
c-11 15 -30 47 -42 70 l-21 42 137 0 138 -1 53 -69z m-348 -94 c36 -48 43 -66
56 -147 8 -50 14 -98 12 -106 -2 -10 -19 -3 -60 27 l-58 41 0 120 c0 65 2 119
5 119 2 0 23 -24 45 -54z m6693 -186 c-4 -4 -30 -20 -57 -36 l-49 -28 6 70 c9
99 23 140 65 186 l37 41 3 -113 c1 -62 -1 -116 -5 -120z m-6250 93 c4 -32 10
-93 13 -135 l7 -78 -141 0 -141 0 -5 33 c-11 64 -26 189 -26 213 l0 24 144 0
143 0 6 -57z m401 -5 c3 -35 8 -96 11 -136 l5 -72 -167 2 -168 3 -7 75 c-3 41
-9 101 -13 133 l-6 57 170 0 169 0 6 -62z m370 1 c3 -34 6 -95 6 -135 l0 -74
-149 0 -149 0 -6 88 c-4 48 -8 108 -10 135 l-3 47 152 0 152 0 7 -61z m361
-79 l0 -135 -142 0 c-78 0 -144 2 -146 5 -3 3 -7 65 -9 138 l-3 133 150 -3
150 -3 0 -135z m345 0 l0 -140 -128 0 c-86 0 -132 4 -140 12 -13 13 -18 249
-5 261 3 4 66 7 140 7 l133 0 0 -140z m410 0 l0 -140 -172 2 -173 3 -3 138 -3
137 176 0 175 0 0 -140z m407 128 c4 -7 10 -70 11 -140 l4 -128 -175 0 -175 0
-7 125 c-4 68 -5 131 -1 140 4 13 31 15 170 15 121 0 167 -3 173 -12z m421
-131 l3 -137 -173 2 -173 3 -3 124 c-1 69 0 131 2 138 4 11 41 13 173 11 l168
-3 3 -138z m383 133 c17 -10 19 -22 19 -133 0 -82 -4 -127 -12 -135 -14 -14
-67 -15 -221 -5 l-107 6 0 127 c0 85 4 130 12 138 15 15 281 17 309 2z m2573
0 c5 -6 -12 -256 -19 -277 -3 -10 -47 -13 -174 -13 -93 0 -171 3 -173 8 -2 4
-2 69 0 144 l4 137 36 4 c51 6 319 3 326 -3z m-2136 -129 c2 -82 -1 -128 -9
-137 -9 -11 -46 -14 -164 -14 -85 0 -160 3 -169 6 -13 5 -16 27 -16 133 0 70
3 131 7 135 4 3 84 5 177 4 l171 -3 3 -124z m419 -3 c-4 -72 -10 -135 -15
-140 -5 -5 -82 -7 -173 -6 l-164 3 -3 124 c-1 69 0 131 2 138 4 10 46 13 182
13 l177 0 -6 -132z m443 5 c0 -71 -4 -134 -8 -141 -7 -9 -51 -12 -188 -10
l-179 3 -3 138 -3 137 191 0 190 0 0 -127z m418 -10 l-3 -138 -177 -3 -178 -2
0 140 0 140 180 0 181 0 -3 -137z m432 69 c0 -38 -3 -103 -6 -145 l-7 -77
-117 0 c-64 0 -145 3 -179 6 l-61 7 0 138 0 139 185 0 185 0 0 -68z m800 59
c0 -9 -23 -137 -41 -228 l-10 -53 -141 0 -140 0 6 78 c3 42 9 107 12 145 l6
67 154 0 c85 0 154 -4 154 -9z m-6707 -88 l107 -74 0 -155 c0 -140 -2 -154
-17 -153 -10 0 -63 19 -118 42 l-100 42 -3 193 c-2 154 0 192 10 186 7 -4 61
-41 121 -81z m7180 -304 c-14 -13 -196 -50 -205 -41 -4 4 -5 68 0 142 l7 135
100 61 100 61 3 -175 c1 -97 -1 -179 -5 -183z m-6943 141 c35 -24 62 -50 65
-63 7 -32 22 -231 18 -236 -2 -3 -37 6 -78 19 l-75 24 0 148 c0 81 2 148 6
148 3 0 32 -18 64 -40z m6676 9 c-3 -17 -6 -73 -6 -124 l0 -92 -51 -11 c-85
-20 -83 -22 -76 61 11 125 15 136 65 168 61 39 76 38 68 -2z m-6221 -131 c3
-35 7 -88 8 -118 l2 -55 -135 0 -135 0 -12 90 c-6 50 -12 102 -12 118 l-1 27
139 0 139 0 7 -62z m389 16 c3 -26 6 -78 6 -115 0 -84 7 -81 -180 -77 l-135 3
-6 55 c-4 30 -9 83 -13 118 l-6 62 164 0 163 0 7 -46z m360 -6 c3 -29 6 -81 6
-115 l0 -63 -145 0 -144 0 -5 33 c-3 17 -7 69 -9 115 l-4 82 147 0 147 0 7
-52z m357 25 c5 -14 8 -65 7 -112 l-3 -86 -147 -3 -148 -3 0 116 0 115 140 0
140 0 11 -27z m339 -93 l0 -111 -132 3 -133 3 -3 108 -3 107 136 0 135 0 0
-110z m414 79 c3 -17 6 -64 6 -104 0 -89 10 -85 -196 -85 l-151 0 -7 77 c-3
42 -6 91 -6 110 l0 33 174 0 174 0 6 -31z m416 -74 l0 -105 -175 0 -175 0 0
105 0 105 175 0 175 0 0 -105z m405 0 l0 -100 -167 -3 -168 -2 0 98 c0 54 3
102 7 106 4 3 79 5 167 4 l161 -3 0 -100z m393 93 c18 -18 16 -172 -2 -187 -9
-8 -63 -11 -167 -9 l-154 3 -3 89 c-2 49 -1 95 2 103 7 18 306 19 324 1z m420
-3 c13 -5 17 -151 4 -171 -8 -12 -309 -28 -336 -18 -13 5 -16 23 -16 99 0 65
4 95 12 97 15 5 318 -2 336 -7z m420 -87 l-3 -93 -172 -3 -173 -2 0 88 c0 49
3 92 7 95 3 4 82 7 175 7 l169 0 -3 -92z m437 -3 l0 -90 -182 -3 c-212 -3
-200 -10 -188 114 l7 74 181 -2 182 -3 0 -90z m423 4 c3 -83 2 -87 -20 -93
-44 -11 -313 -7 -326 6 -16 16 -16 150 0 166 9 9 58 12 178 10 l165 -3 3 -86z
m427 1 l0 -85 -180 0 -180 0 3 75 c1 41 4 81 7 88 3 10 45 12 177 10 l173 -3
0 -85z m415 33 c0 -27 -3 -65 -6 -85 l-7 -38 -168 0 -169 0 0 85 0 85 175 0
175 0 0 -47z m340 45 c0 -2 -7 -38 -15 -81 -8 -43 -15 -81 -15 -83 0 -3 -57
-3 -127 -2 l-128 3 4 75 c1 41 5 78 8 83 4 6 273 11 273 5z m-6646 -160 l106
-41 0 -160 0 -159 -42 6 c-24 3 -75 8 -114 12 l-71 6 -6 181 c-3 99 -4 184 -1
189 8 13 17 10 128 -34z m7186 -101 l0 -144 -97 -16 c-54 -10 -104 -17 -110
-17 -10 0 -13 35 -13 139 l0 139 78 17 c42 9 82 18 87 20 6 2 20 4 33 4 22 1
22 0 22 -142z m-280 26 c0 -32 -3 -95 -6 -140 l-7 -81 -65 -12 c-35 -6 -67 -9
-70 -6 -2 3 -1 65 4 138 l9 132 50 12 c87 20 85 21 85 -43z m-1451 -2 c20 -13
10 -249 -10 -262 -8 -5 -86 -8 -174 -6 l-160 2 0 130 0 130 40 6 c64 10 289
10 304 0z m431 -103 c0 -174 18 -158 -186 -158 l-174 0 0 129 c0 94 3 131 13
134 6 3 87 6 180 6 l167 1 0 -112z m406 85 c-2 -16 -8 -76 -11 -135 l-7 -108
-164 0 -164 0 0 128 c0 71 3 132 7 135 3 4 82 7 175 7 l170 0 -6 -27z m310 5
c-3 -13 -10 -49 -16 -80 -5 -32 -15 -83 -21 -113 l-10 -55 -111 0 -110 0 7 88
c3 48 8 108 11 135 l6 47 124 0 c124 0 124 0 120 -22z m-6353 -1 l32 -14 -6
-99 c-4 -54 -7 -114 -8 -131 -1 -32 -2 -33 -46 -33 l-45 0 0 145 c0 139 1 145
20 145 11 0 35 -6 53 -13z m3515 -125 l3 -132 -166 0 -165 0 0 130 0 129 153
3 c83 2 157 3 162 2 6 0 11 -54 13 -132z m422 3 l0 -135 -175 0 -175 0 0 128
c0 71 3 132 7 135 3 4 82 7 175 7 l168 0 0 -135z m415 0 l0 -130 -169 -3 c-93
-1 -173 1 -178 6 -4 4 -5 65 -1 135 l6 127 171 -2 171 -3 0 -130z m438 12 c-1
-65 -4 -125 -7 -133 -5 -12 -36 -14 -183 -12 l-178 3 -3 119 c-1 66 0 126 2
133 4 11 43 13 188 11 l183 -3 -2 -118z m-2485 -11 c2 -78 -1 -123 -9 -132 -9
-11 -45 -14 -159 -14 -82 0 -155 3 -164 6 -13 5 -16 26 -16 129 l0 124 38 4
c20 2 98 3 172 3 l135 -1 3 -119z m416 108 c11 -30 7 -229 -6 -242 -17 -17
-319 -17 -336 0 -8 8 -12 53 -12 135 l0 123 174 0 c149 0 175 -2 180 -16z
m401 6 c3 -5 3 -63 -1 -130 l-7 -120 -164 0 -163 0 0 130 0 130 164 0 c94 0
167 -4 171 -10z m-2271 -77 c3 -42 6 -100 6 -130 l0 -53 -154 0 -153 0 -12
113 c-6 62 -11 118 -11 124 0 16 34 20 186 22 l131 1 7 -77z m350 0 c3 -42 6
-100 6 -130 l0 -53 -140 0 c-163 0 -146 -17 -154 153 l-6 107 144 0 143 0 7
-77z m356 -53 l0 -130 -145 0 -145 0 0 108 c0 59 -3 117 -6 130 l-6 22 151 0
151 0 0 -130z m334 108 c11 -42 7 -213 -6 -226 -8 -8 -52 -12 -134 -12 l-122
0 -7 115 c-4 63 -5 121 -1 130 4 12 28 15 135 15 125 0 129 -1 135 -22z
m-1415 -109 c6 -67 10 -123 8 -125 -2 -2 -62 -5 -133 -6 l-129 -3 -16 123 c-8
67 -13 124 -11 127 3 3 65 5 137 5 l132 0 12 -121z m-365 -81 c7 -66 7 -68
-15 -68 -21 0 -22 3 -15 61 3 34 7 85 7 113 l1 51 8 -45 c4 -25 11 -75 14
-112z m6826 -143 l0 -145 -115 0 -116 0 3 127 3 128 85 16 c47 9 97 17 113 18
l27 1 0 -145z m-290 -25 l0 -120 -81 0 -82 0 7 46 c3 26 6 75 6 109 l0 62 53
10 c105 21 97 30 97 -107z m-6812 63 c22 -5 22 -8 22 -163 0 -88 -3 -161 -7
-163 -5 -2 -56 -8 -115 -11 l-108 -7 0 182 0 182 93 -7 c50 -4 102 -10 115
-13z m5356 11 c13 -5 16 -24 16 -100 0 -82 -2 -95 -19 -104 -28 -15 -314 -13
-329 2 -8 8 -12 45 -12 100 0 72 3 89 18 97 18 11 300 15 326 5z m436 -99 l0
-105 -177 2 -178 3 -3 88 c-2 57 1 94 9 103 9 11 48 14 180 14 l169 0 0 -105z
m386 8 c-4 -53 -9 -99 -12 -103 -3 -3 -75 -7 -160 -8 l-154 -4 0 106 0 106
166 0 167 0 -7 -97z m278 70 c-2 -16 -10 -59 -17 -98 l-12 -70 -99 -3 -99 -3
7 47 c3 26 6 71 6 100 l0 54 110 0 110 0 -6 -27z m141 -78 c-5 -75 -10 -95
-22 -95 -12 0 -14 7 -9 33 4 17 12 62 18 100 6 37 13 65 16 63 2 -3 1 -48 -3
-101z m-3717 83 c13 -13 17 -183 6 -212 -5 -14 -30 -16 -174 -16 -144 0 -169
2 -174 16 -3 9 -6 58 -6 109 0 79 3 96 18 104 25 15 315 14 330 -1z m400 -104
l3 -112 -155 -7 c-85 -4 -159 -4 -165 0 -12 7 -16 217 -4 229 4 3 77 5 162 4
l156 -3 3 -111z m400 4 l-3 -113 -165 0 -165 0 -3 90 c-5 147 -20 135 174 135
l165 0 -3 -112z m422 4 l0 -109 -164 -6 c-91 -4 -172 -4 -180 -1 -13 5 -16 24
-16 99 0 51 3 100 6 109 5 14 31 16 180 16 l174 0 0 -108z m418 6 c2 -89 1
-98 -17 -108 -13 -6 -79 -9 -178 -8 l-158 3 -3 94 c-1 52 0 101 2 108 5 11 41
13 178 11 l173 -3 3 -97z m432 10 c0 -51 -4 -98 -8 -105 -8 -13 -331 -21 -351
-9 -12 8 -16 188 -4 199 3 4 87 7 185 7 l178 0 0 -92z m-4283 -38 c6 -63 10
-121 8 -127 -3 -10 -38 -13 -130 -13 -112 0 -125 2 -125 18 0 9 -7 64 -15 122
-7 57 -11 108 -9 112 3 5 63 7 132 6 l127 -3 12 -115z m368 -1 c4 -66 6 -122
4 -123 -2 -2 -69 -5 -149 -7 l-144 -4 -7 40 c-4 22 -10 79 -14 128 l-7 87 155
0 155 0 7 -121z m339 44 c3 -42 6 -98 6 -125 l0 -48 -140 0 -140 0 0 58 c0 31
-3 87 -7 125 l-6 67 140 0 140 0 7 -77z m354 -44 l3 -116 -83 -6 c-46 -4 -111
-7 -145 -7 l-63 0 0 103 c0 56 -3 112 -6 125 l-6 23 148 -3 149 -3 3 -116z
m327 1 l0 -115 -130 0 -130 0 -3 118 -3 118 133 -3 133 -3 0 -115z m413 11 c1
-57 -1 -108 -6 -113 -5 -5 -77 -12 -160 -15 -115 -5 -155 -3 -167 7 -12 10
-15 35 -15 115 0 56 3 105 7 109 4 3 81 5 172 4 l166 -3 3 -104z m-2284 -49
c4 -79 7 -144 5 -146 -2 -2 -25 -7 -51 -10 l-48 -7 0 156 0 156 43 -3 42 -3 9
-143z m100 3 c20 -150 20 -145 -8 -145 -23 0 -23 2 -29 133 -3 72 -3 136 0
140 12 20 23 -16 37 -128z m5872 -212 c-4 -71 -10 -136 -12 -145 -5 -16 -21
-18 -155 -18 l-149 0 0 118 c0 64 3 127 6 139 7 24 19 25 238 31 l78 2 -6
-127z m254 115 c-1 -7 -11 -69 -23 -138 l-23 -125 -78 -3 -78 -3 7 123 c3 68
9 131 11 141 5 14 18 17 95 17 65 0 89 -3 89 -12z m173 -50 c-2 -35 -6 -96 -9
-135 -6 -72 -6 -73 -34 -73 -16 0 -32 5 -35 10 -5 9 27 211 40 248 2 6 13 12
23 12 16 0 18 -7 15 -62z m217 -94 l0 -157 -42 7 c-24 4 -62 10 -86 13 l-42 6
5 81 c3 44 8 109 11 144 l6 62 74 0 74 0 0 -156z m300 -24 c0 -165 -1 -180
-17 -179 -10 0 -63 8 -118 17 l-100 18 -3 109 c-2 61 0 134 3 163 l6 52 115 0
114 0 0 -180z m-1751 161 c11 -7 14 -35 12 -133 -1 -67 -6 -126 -10 -131 -4
-4 -80 -10 -168 -14 -196 -7 -185 -17 -175 153 l7 119 120 5 c66 4 138 7 160
8 22 1 46 -2 54 -7z m431 -131 l0 -140 -174 0 c-167 0 -175 1 -181 20 -10 32
6 244 19 252 6 4 84 8 174 8 l162 0 0 -140z m-842 118 c6 -8 8 -60 4 -136 -4
-114 -6 -123 -26 -128 -11 -2 -91 -3 -176 -2 l-155 3 -3 129 c-2 97 1 131 10
138 22 14 334 10 346 -4z m-843 -138 l0 -135 -175 0 -175 0 -3 129 c-2 97 1
132 10 138 7 4 87 7 178 5 l165 -2 0 -135z m419 123 c3 -10 2 -70 -2 -133 l-7
-115 -159 -8 c-88 -4 -165 -5 -173 -3 -10 4 -13 37 -13 134 0 71 3 132 7 135
3 4 82 7 174 7 151 0 168 -2 173 -17z m-1236 -130 c3 -158 20 -145 -183 -141
l-140 3 -3 132 c-3 156 -23 141 183 139 l140 -1 3 -132z m400 5 l-3 -133 -167
-3 -168 -2 0 128 c0 71 3 132 7 135 3 4 80 7 170 7 l164 0 -3 -132z m-1213
110 c8 -28 12 -237 4 -249 -6 -11 -45 -14 -171 -14 l-163 0 -7 110 c-11 153
-10 153 60 158 150 9 273 7 277 -5z m423 -33 c2 -22 1 -82 -3 -133 l-7 -92
-166 2 -167 3 -3 119 c-1 66 0 126 2 133 4 11 41 13 173 11 l168 -3 3 -40z
m-1154 -87 c5 -65 6 -124 3 -133 -5 -12 -30 -15 -147 -15 l-140 0 0 99 c0 54
-3 112 -6 129 -6 28 -4 31 22 35 16 2 81 4 144 3 l115 -1 9 -117z m321 -13 l0
-130 -127 -3 -127 -3 -3 126 c-2 69 -1 130 0 135 3 7 52 10 130 8 l127 -3 0
-130z m-1005 88 c0 -21 3 -82 7 -135 l6 -98 -146 0 c-116 0 -147 3 -147 13 0
8 -5 62 -11 121 -6 59 -8 114 -5 122 4 11 34 14 151 14 l145 0 0 -37z m333
-45 c4 -46 7 -107 7 -135 l0 -53 -129 0 c-72 0 -132 3 -134 8 -3 4 -8 64 -11
135 l-8 127 135 0 134 0 6 -82z m-689 -15 c4 -49 9 -107 12 -129 l6 -41 -119
-5 c-65 -3 -121 -3 -125 1 -5 4 -38 228 -38 258 0 2 58 3 129 3 l128 0 7 -87z
m-364 30 c1 -10 7 -66 14 -125 l12 -107 -45 -16 c-24 -8 -45 -14 -46 -12 -1 1
-5 64 -8 140 l-5 137 39 0 c30 0 39 -4 39 -17z m-137 -90 c4 -54 7 -121 7
-149 l0 -50 -47 -17 c-27 -9 -51 -17 -55 -17 -5 0 -8 72 -8 159 0 174 -2 169
61 170 l36 1 6 -97z m-163 -87 l0 -173 -112 -41 c-62 -22 -116 -38 -120 -35
-5 2 -8 94 -8 203 l0 198 63 6 c34 3 78 8 97 9 19 2 45 5 58 5 l22 2 0 -174z
m6537 -20 c6 -5 -15 -248 -23 -255 -11 -10 -99 29 -99 44 0 6 9 58 19 117 l19
108 41 -7 c23 -3 42 -6 43 -7z m-432 -88 c-4 -46 -10 -86 -14 -90 -3 -3 -69
-8 -146 -10 l-140 -3 0 85 0 85 100 6 c55 3 124 6 153 7 l53 2 -6 -82z m215
75 c0 -22 -24 -141 -32 -155 -7 -14 -21 -18 -63 -18 -29 0 -56 4 -60 9 -3 6
-3 46 1 90 l7 81 73 0 c41 0 74 -3 74 -7z m-1000 -18 c13 -16 11 -148 -4 -162
-9 -10 -287 -17 -322 -9 -24 6 -25 9 -22 89 l3 82 40 6 c22 3 97 7 166 8 101
1 129 -2 139 -14z m418 -72 l-3 -88 -170 0 -170 0 -3 73 c-2 46 2 79 9 88 9
11 47 14 176 14 l164 0 -3 -87z m960 76 l67 -11 -3 -162 c-2 -88 -8 -165 -13
-171 -6 -6 -36 4 -87 30 l-77 40 3 85 c5 146 12 200 29 200 8 0 44 -5 81 -11z
m-2234 -5 c23 -9 23 -169 0 -178 -9 -3 -87 -6 -175 -6 l-159 0 0 88 c0 49 3
92 7 95 8 9 306 9 327 1z m444 -75 c2 -53 -1 -79 -10 -86 -7 -6 -84 -13 -171
-16 -187 -6 -187 -6 -187 84 0 103 -6 100 193 97 l172 -3 3 -76z m-1670 59
c16 -16 16 -160 0 -176 -8 -8 -59 -12 -165 -12 l-153 0 0 95 0 94 123 4 c67 1
136 4 153 5 16 1 35 -3 42 -10z m407 -83 l0 -90 -155 -5 c-85 -4 -161 -4 -167
-2 -14 4 -19 173 -6 186 4 3 79 5 167 4 l161 -3 0 -90z m418 7 c-1 -46 -4 -87
-8 -90 -4 -4 -82 -7 -173 -7 l-167 0 -3 79 c-2 44 -1 85 2 93 5 11 40 13 178
11 l173 -3 -2 -83z m-1625 66 c17 -17 16 -162 -2 -177 -9 -8 -64 -11 -172 -9
l-159 3 0 90 0 90 60 6 c116 11 260 10 273 -3z m412 -82 l0 -93 -92 -7 c-114
-8 -212 -8 -232 0 -13 5 -16 23 -16 93 0 48 3 91 7 94 3 4 80 7 170 7 l163 0
0 -94z m4115 69 c50 -8 93 -15 98 -15 4 0 7 -99 7 -220 0 -190 -2 -220 -15
-220 -9 0 -65 25 -125 55 l-110 55 0 103 c0 56 3 139 7 184 6 77 7 82 27 78
12 -3 62 -11 111 -20z m-5601 -80 c4 -52 4 -99 1 -105 -4 -6 -58 -10 -129 -10
l-123 0 -7 61 c-3 34 -6 79 -6 100 l0 38 88 4 c48 1 106 4 128 5 l41 2 7 -95z
m344 -7 l3 -98 -131 0 c-71 0 -133 -1 -137 -2 -8 -3 -23 181 -16 195 3 4 66 6
141 5 l137 -3 3 -97z m326 86 c12 -32 6 -161 -8 -173 -9 -8 -54 -11 -132 -9
l-119 3 -3 84 c-2 46 -1 90 2 98 4 10 35 13 130 13 104 0 125 -3 130 -16z
m-1351 -1 c3 -5 8 -52 12 -105 l7 -98 -119 0 -120 0 -7 68 c-4 37 -9 84 -13
105 l-6 37 121 0 c67 0 123 -3 125 -7z m357 -55 c0 -35 3 -79 6 -99 l6 -37
-138 -4 c-77 -2 -142 -2 -145 1 -4 3 -10 50 -14 104 l-7 97 146 0 146 0 0 -62z
m-695 -75 l11 -95 -26 -17 c-14 -10 -40 -26 -57 -35 l-33 -17 -2 91 c-1 49 -2
102 -2 117 -1 24 5 30 44 44 25 9 47 15 50 12 3 -2 10 -47 15 -100z m-172 -20
c4 -38 7 -93 7 -124 0 -61 5 -55 -83 -108 l-38 -23 3 143 3 143 45 18 c25 9
48 17 51 17 3 1 9 -29 12 -66z m-173 -142 l0 -149 -107 -63 c-60 -34 -111 -64
-115 -66 -5 -2 -8 74 -8 170 l0 175 108 40 c59 22 110 41 115 41 4 1 7 -66 7
-148z m6082 4 c-2 -60 -7 -137 -10 -170 l-7 -60 -139 -3 -139 -3 5 167 c4 126
9 168 19 175 8 5 73 8 144 7 l130 -3 -3 -110z m191 108 c4 -8 -47 -302 -57
-329 -6 -15 -71 -20 -80 -6 -5 9 12 306 20 330 4 13 110 18 117 5z m-969 -9
c24 -9 24 -305 0 -328 -13 -13 -43 -16 -168 -16 -105 0 -156 4 -164 12 -13 13
-15 156 -3 263 l6 60 100 6 c163 9 212 9 229 3z m424 -161 l-3 -168 -155 -5
c-85 -3 -163 -1 -172 3 -16 7 -18 24 -18 153 0 81 5 154 10 165 10 18 23 19
176 19 l164 0 -2 -167z m-830 -2 c2 -104 -1 -158 -9 -167 -15 -19 -319 -20
-337 -2 -8 8 -12 58 -12 160 0 129 2 148 18 157 10 7 81 10 177 8 l160 -2 3
-154z m-840 -18 l2 -163 -175 0 -175 0 0 160 0 159 98 4 c53 2 131 3 172 3
l75 -1 3 -162z m420 11 c2 -120 0 -154 -12 -163 -9 -8 -63 -11 -177 -9 l-164
3 -3 40 c-2 22 -1 95 3 163 l7 122 172 -2 171 -3 3 -151z m-833 -14 l0 -155
-170 0 -170 0 4 150 c2 83 5 153 8 158 2 4 77 6 166 5 l162 -3 0 -155z m2867
111 c10 -9 -10 -303 -21 -314 -11 -11 -98 32 -125 61 -14 16 -17 31 -13 64 7
65 39 211 49 225 7 8 21 6 56 -9 26 -11 50 -23 54 -27z m-3664 -117 l3 -152
-153 -4 c-84 -3 -161 -1 -171 4 -16 8 -17 23 -15 151 l3 142 55 6 c30 3 105 6
165 5 l110 -1 3 -151z m392 1 l0 -155 -162 2 -163 3 -3 130 c-4 193 -21 175
168 175 l160 0 0 -155z m-1219 135 c17 -10 19 -23 19 -150 0 -165 12 -152
-150 -148 l-105 3 -3 147 -3 147 103 4 c57 1 107 4 111 5 5 1 17 -3 28 -8z
m427 -134 c2 -93 -1 -143 -9 -152 -15 -19 -309 -20 -327 -2 -17 17 -17 269 0
286 9 9 57 12 173 10 l160 -3 3 -139z m-1085 127 c3 -5 8 -72 12 -150 l7 -143
-125 0 -125 0 -6 108 c-4 59 -9 124 -11 144 l-5 37 117 4 c65 1 121 4 125 5 4
1 9 -1 11 -5z m352 -35 c3 -24 5 -90 3 -148 l-3 -105 -136 -3 -136 -3 -6 142
c-3 79 -4 146 -1 151 3 4 65 8 139 8 l134 0 6 -42z m-661 -30 c3 -35 8 -100
11 -145 l6 -83 -135 0 -134 0 -6 28 c-2 15 -7 63 -11 107 -3 44 -8 97 -11 118
l-6 37 140 0 140 0 6 -62z m-341 15 c3 -21 9 -84 13 -141 l7 -103 -114 3 -114
3 -12 100 c-7 55 -14 117 -18 138 l-5 37 119 0 118 0 6 -37z m-337 -101 c11
-95 11 -98 -13 -140 -20 -35 -101 -109 -108 -100 -1 2 -5 65 -8 140 l-5 137
56 34 c32 19 59 32 62 30 3 -3 10 -48 16 -101z m6305 57 c79 -39 81 -41 75
-71 -3 -17 -6 -98 -6 -180 0 -117 -3 -150 -14 -154 -7 -3 -50 21 -95 53 -92
65 -85 42 -72 245 8 116 14 148 27 148 2 0 41 -18 85 -41z m-6492 -254 l1 -80
-59 -33 c-32 -17 -61 -32 -65 -32 -4 0 -5 62 -4 137 l3 137 55 33 55 33 6 -58
c4 -31 7 -93 8 -137z m6776 117 l110 -57 3 -223 c2 -189 0 -223 -12 -228 -9
-4 -63 29 -136 82 l-120 88 0 131 c0 186 9 265 29 265 9 -1 66 -26 126 -58z
m-6967 -168 l-3 -136 -109 -59 c-60 -32 -111 -59 -113 -59 -1 0 -3 58 -3 129
l0 128 108 66 c59 36 111 66 115 66 4 1 6 -60 5 -135z"/>
</g>
</svg>